<svg class="w-full" height="38" viewBox="0 0 195 30" fill="none" xmlns="http://www.w3.org/2000/svg"><path d="M43.4154 24.042C42.369 23.5011 41.561 22.7438 40.9925 21.7702C40.4229 20.7971 40.1393 19.6682 40.1393 18.3828V11.5807C40.1393 10.2959 40.4229 9.16703 40.9925 8.19336C41.561 7.22094 42.369 6.46793 43.4154 5.93557C44.463 5.40321 45.6744 5.13672 47.0508 5.13672C48.4089 5.13672 49.6118 5.39405 50.6582 5.90805C51.7046 6.42209 52.5126 7.14697 53.0822 8.08333C53.6506 9.0197 53.9355 10.1034 53.9355 11.3331C53.9355 11.4248 53.9037 11.503 53.8389 11.5672C53.7753 11.6314 53.6971 11.6632 53.6054 11.6632L51.0714 11.8013C50.8513 11.8013 50.7413 11.7005 50.7413 11.4981C50.7413 10.4151 50.4064 9.5429 49.7365 8.88218C49.0654 8.22085 48.1706 7.89082 47.0508 7.89082C45.9311 7.89082 45.0314 8.22088 44.3517 8.88218C43.6733 9.5429 43.3335 10.4151 43.3335 11.4981V18.5203C43.3335 19.5857 43.6733 20.4481 44.3517 21.1094C45.0314 21.7701 45.9311 22.1008 47.0508 22.1008C48.1706 22.1008 49.0654 21.775 49.7365 21.1228C50.4064 20.4713 50.7413 19.604 50.7413 18.5203C50.7413 18.3186 50.8513 18.2178 51.0714 18.2178L53.6054 18.3278C53.6971 18.3278 53.7753 18.3553 53.8389 18.4103C53.9037 18.4653 53.9355 18.5301 53.9355 18.6035C53.9355 19.8522 53.6507 20.9487 53.0822 21.8942C52.5126 22.8397 51.7046 23.5695 50.6582 24.0836C49.6118 24.5976 48.4089 24.8543 47.0508 24.8543C45.6744 24.8543 44.463 24.5842 43.4154 24.042Z" fill="#191307"></path><path d="M69.3183 24.3573L68.4101 21.4107C68.3722 21.338 68.327 21.3007 68.272 21.3007H61.001C60.946 21.3007 60.9008 21.338 60.8641 21.4107L59.9546 24.3573C59.8996 24.5413 59.7798 24.633 59.5965 24.633H56.8436C56.7335 24.633 56.6504 24.6012 56.5954 24.5364C56.5404 24.4722 56.5306 24.3763 56.5673 24.2473L62.5437 5.63112C62.5987 5.44777 62.7185 5.35547 62.9019 5.35547H66.3442C66.5276 5.35547 66.6474 5.44777 66.7024 5.63112L72.7057 24.2473C72.724 24.2846 72.7326 24.3298 72.7326 24.3848C72.7326 24.5505 72.6323 24.633 72.4306 24.633H69.6765C69.4932 24.633 69.3734 24.5413 69.3184 24.3573L69.3183 24.3573ZM61.8274 18.7947H67.4175C67.5288 18.7947 67.5654 18.7397 67.5287 18.6297L64.6915 9.4041C64.6732 9.33075 64.6463 9.29407 64.6096 9.29407C64.5717 9.29407 64.5448 9.33075 64.5265 9.4041L61.7174 18.6297C61.6991 18.7397 61.7357 18.7947 61.8274 18.7947Z" fill="#191307"></path><path d="M78.9865 24.3573L73.2033 5.74115L73.1764 5.63112C73.1764 5.44777 73.2766 5.35547 73.4796 5.35547H76.2056C76.4073 5.35547 76.5356 5.44777 76.5906 5.63112L80.7224 20.0067C80.7395 20.0617 80.7676 20.0893 80.8043 20.0893C80.841 20.0893 80.8691 20.0617 80.8874 20.0067L84.9898 5.63112C85.0461 5.44777 85.1732 5.35547 85.3761 5.35547H88.0471C88.1571 5.35547 88.2402 5.39277 88.2952 5.46609C88.3502 5.53944 88.3588 5.63112 88.3221 5.74112L82.457 24.3573C82.402 24.5413 82.2822 24.633 82.0988 24.633H79.3447C79.1614 24.633 79.0415 24.5413 78.9865 24.3573Z" fill="#191307"></path><path d="M91.9796 24.5364C91.916 24.4723 91.8843 24.3946 91.8843 24.3023V5.68615C91.8843 5.59448 91.916 5.51684 91.9796 5.45205C92.0444 5.38789 92.1226 5.35547 92.2143 5.35547H94.7472C94.8388 5.35547 94.9171 5.38786 94.9819 5.45205C95.0454 5.51684 95.0784 5.59448 95.0784 5.68615V24.3023C95.0784 24.3946 95.0454 24.4722 94.9819 24.5364C94.9171 24.6012 94.8388 24.633 94.7472 24.633H92.2143C92.1226 24.633 92.0444 24.6012 91.9796 24.5364Z" fill="#191307"></path><path d="M111.417 24.3573L110.509 21.4107C110.471 21.338 110.426 21.3007 110.371 21.3007H103.1C103.045 21.3007 103 21.338 102.963 21.4107L102.054 24.3573C101.999 24.5413 101.879 24.633 101.695 24.633H98.9426C98.8325 24.633 98.7494 24.6012 98.6944 24.5364C98.6394 24.4722 98.6296 24.3763 98.6663 24.2473L104.643 5.63112C104.698 5.44777 104.818 5.35547 105.001 5.35547H108.443C108.627 5.35547 108.746 5.44777 108.801 5.63112L114.805 24.2473C114.823 24.2846 114.832 24.3298 114.832 24.3848C114.832 24.5505 114.731 24.633 114.53 24.633H111.776C111.592 24.633 111.472 24.5413 111.417 24.3573L111.417 24.3573ZM103.926 18.7947H109.517C109.628 18.7947 109.664 18.7397 109.628 18.6297L106.791 9.4041C106.772 9.33075 106.745 9.29407 106.709 9.29407C106.671 9.29407 106.644 9.33075 106.625 9.4041L103.816 18.6297C103.798 18.7397 103.835 18.7947 103.926 18.7947Z" fill="#191307"></path><path d="M128.816 24.3848L125.18 16.4538C125.144 16.3811 125.089 16.3438 125.015 16.3438H121.71C121.618 16.3438 121.573 16.3896 121.573 16.4813V24.3023C121.573 24.3946 121.54 24.4722 121.476 24.5364C121.411 24.6012 121.333 24.633 121.242 24.633H118.709C118.617 24.633 118.539 24.6012 118.474 24.5364C118.41 24.4723 118.379 24.3946 118.379 24.3023V5.68615C118.379 5.59448 118.41 5.51684 118.474 5.45205C118.539 5.38789 118.617 5.35547 118.709 5.35547H126.282C127.401 5.35547 128.393 5.58957 129.256 6.05774C130.119 6.52593 130.789 7.18724 131.267 8.0405C131.743 8.89435 131.983 9.8723 131.983 10.9737C131.983 12.2407 131.656 13.3195 131.005 14.2094C130.352 15.1 129.449 15.7198 128.292 16.0681C128.255 16.0681 128.228 16.0871 128.209 16.1238C128.191 16.1604 128.191 16.1971 128.209 16.2338L132.093 24.2473C132.13 24.3213 132.148 24.3763 132.148 24.413C132.148 24.5597 132.046 24.633 131.845 24.633H129.201C129.017 24.633 128.889 24.5505 128.816 24.3849L128.816 24.3848ZM121.573 8.24711V13.7278C121.573 13.8195 121.618 13.8653 121.71 13.8653H125.842C126.723 13.8653 127.433 13.6038 127.976 13.0806C128.516 12.5574 128.788 11.8643 128.788 11.0012C128.788 10.1382 128.516 9.44084 127.976 8.90848C127.433 8.37612 126.723 8.10963 125.842 8.10963H121.71C121.618 8.10963 121.573 8.15544 121.573 8.24711Z" fill="#191307"></path><path d="M147.134 5.45208C147.199 5.38792 147.277 5.3555 147.369 5.3555H149.901C149.993 5.3555 150.071 5.38789 150.136 5.45208C150.2 5.51687 150.233 5.59451 150.233 5.68618V24.3024C150.233 24.3947 150.2 24.4723 150.136 24.5365C150.071 24.6012 149.993 24.633 149.901 24.633H147.45C147.267 24.633 147.139 24.5597 147.065 24.413L139.134 11.4144C139.098 11.3594 139.061 11.3362 139.024 11.3454C138.988 11.3552 138.969 11.3961 138.969 11.4694L139.024 24.3024C139.024 24.3947 138.991 24.4723 138.928 24.5365C138.863 24.6012 138.785 24.633 138.693 24.633H136.16C136.069 24.633 135.99 24.6013 135.926 24.5365C135.862 24.4723 135.83 24.3947 135.83 24.3024V5.68615C135.83 5.59448 135.862 5.51684 135.926 5.45205C135.99 5.38789 136.069 5.35547 136.16 5.35547H138.611C138.795 5.35547 138.923 5.42941 138.996 5.57612L146.9 18.5747C146.937 18.6297 146.974 18.6529 147.01 18.6431C147.047 18.634 147.065 18.593 147.065 18.5191L147.038 5.68615C147.038 5.59448 147.07 5.51684 147.134 5.45205L147.134 5.45208Z" fill="#191307"></path><path d="M154.77 24.5364C154.707 24.4723 154.675 24.3946 154.675 24.3023V5.68615C154.675 5.59448 154.707 5.51684 154.77 5.45205C154.835 5.38789 154.913 5.35547 155.005 5.35547H157.538C157.629 5.35547 157.708 5.38786 157.772 5.45205C157.836 5.51684 157.869 5.59448 157.869 5.68615V24.3023C157.869 24.3946 157.836 24.4722 157.772 24.5364C157.708 24.6012 157.629 24.633 157.538 24.633H155.005C154.913 24.633 154.835 24.6012 154.77 24.5364Z" fill="#191307"></path><path d="M173.631 5.45208C173.696 5.38792 173.774 5.3555 173.865 5.3555H176.398C176.49 5.3555 176.568 5.38789 176.633 5.45208C176.697 5.51687 176.73 5.59451 176.73 5.68618V24.3024C176.73 24.3947 176.697 24.4723 176.633 24.5365C176.568 24.6012 176.49 24.633 176.398 24.633H173.947C173.764 24.633 173.636 24.5597 173.562 24.413L165.631 11.4144C165.595 11.3594 165.558 11.3362 165.521 11.3454C165.485 11.3552 165.466 11.3961 165.466 11.4694L165.521 24.3024C165.521 24.3947 165.488 24.4723 165.425 24.5365C165.36 24.6012 165.282 24.633 165.19 24.633H162.657C162.566 24.633 162.487 24.6013 162.422 24.5365C162.359 24.4723 162.327 24.3947 162.327 24.3024V5.68615C162.327 5.59448 162.359 5.51684 162.422 5.45205C162.487 5.38789 162.566 5.35547 162.657 5.35547H165.108C165.291 5.35547 165.42 5.42941 165.493 5.57612L173.397 18.5747C173.434 18.6297 173.471 18.6529 173.507 18.6431C173.544 18.634 173.562 18.593 173.562 18.5191L173.535 5.68615C173.535 5.59448 173.567 5.51684 173.631 5.45205L173.631 5.45208Z" fill="#191307"></path><path d="M194.128 8.01305C194.064 8.07783 193.987 8.10963 193.895 8.10963H184.503C184.411 8.10963 184.366 8.15547 184.366 8.24715V13.3972C184.366 13.4895 184.411 13.5347 184.503 13.5347H190.81C190.901 13.5347 190.979 13.5671 191.044 13.6313C191.108 13.6961 191.141 13.7737 191.141 13.8654V15.9581C191.141 16.0504 191.108 16.128 191.044 16.1922C190.979 16.257 190.901 16.2888 190.81 16.2888H184.503C184.411 16.2888 184.366 16.3347 184.366 16.4263V21.7414C184.366 21.8337 184.411 21.8789 184.503 21.8789H193.895C193.987 21.8789 194.064 21.9113 194.128 21.9755C194.193 22.0403 194.225 22.1179 194.225 22.2096V24.3024C194.225 24.3947 194.193 24.4723 194.128 24.5365C194.064 24.6012 193.987 24.633 193.895 24.633H181.502C181.41 24.633 181.332 24.6013 181.267 24.5365C181.204 24.4723 181.172 24.3947 181.172 24.3024V5.68615C181.172 5.59448 181.204 5.51684 181.267 5.45205C181.332 5.38789 181.41 5.35547 181.502 5.35547H193.895C193.987 5.35547 194.064 5.38786 194.128 5.45205C194.193 5.51684 194.225 5.59448 194.225 5.68615V7.77892C194.225 7.87121 194.193 7.94944 194.128 8.01302V8.01305Z" fill="#191307"></path><path fill-rule="evenodd" clip-rule="evenodd" d="M14.9998 2.40825C13.5407 2.40825 12.275 3.23624 11.647 4.44801C13.1159 4.90901 14.3251 5.95689 14.9998 7.31689C15.6743 5.95685 16.8835 4.90894 18.3525 4.44798C17.7244 3.23624 16.4588 2.40825 14.9998 2.40825ZM14.9998 0.5625C12.5956 0.5625 10.544 2.07225 9.74138 4.1954C6.8134 4.3086 4.46006 6.66194 4.34689 9.58989C2.22374 10.3925 0.713989 12.4441 0.713989 14.8483C0.713989 17.2525 2.22374 19.3041 4.34689 20.1067C4.46016 23.0347 6.81346 25.3878 9.74138 25.501C10.544 27.6242 12.5956 29.1339 14.9998 29.1339C17.404 29.1339 19.4556 27.6241 20.2582 25.501C23.1873 25.3877 25.5413 23.0325 25.6527 20.1028L25.6525 20.1067C27.7756 19.304 29.2854 17.2525 29.2854 14.8483C29.2854 12.4441 27.7757 10.3925 25.6525 9.58989C25.5393 6.66198 23.1861 4.30867 20.2582 4.1954C19.4556 2.07225 17.404 0.5625 14.9998 0.5625ZM4.59943 18.201C5.0604 16.732 6.10831 15.5228 7.46834 14.8483C6.10834 14.1736 5.06046 12.9645 4.59947 11.4955C3.3877 12.1235 2.5597 13.3892 2.5597 14.8483C2.5597 16.3074 3.3877 17.573 4.59943 18.201ZM14.9998 27.2882C13.5407 27.2882 12.275 26.4602 11.647 25.2485C13.1159 24.7874 14.3251 23.7397 14.9996 22.3796C15.6743 23.7397 16.8835 24.7876 18.3525 25.2485C17.7245 26.4602 16.4588 27.2882 14.9998 27.2882ZM25.3999 11.4955C24.9389 12.9645 23.891 14.1736 22.5311 14.8483C23.8911 15.5229 24.939 16.7322 25.3999 18.2012C26.6117 17.573 27.4397 16.3074 27.4397 14.8483C27.4397 13.3892 26.6117 12.1236 25.3999 11.4955ZM6.18834 9.81085C6.18834 7.72656 7.87801 6.03689 9.96231 6.03689C11.8999 6.03689 13.4964 7.49701 13.7116 9.37694C11.6424 9.86221 10.0136 11.491 9.52836 13.5602C7.64843 13.345 6.18834 11.7484 6.18834 9.81085ZM9.52836 16.1364C7.64843 16.3516 6.18834 17.948 6.18834 19.8856C6.18834 21.9699 7.87801 23.6596 9.96231 23.6596C11.8998 23.6596 13.4963 22.1995 13.7116 20.3197C11.6424 19.8344 10.0136 18.2056 9.52836 16.1364ZM16.2879 20.3197C16.503 22.1996 18.0996 23.6596 20.0371 23.6596C22.1213 23.6596 23.811 21.9699 23.811 19.8856C23.811 17.9482 22.351 16.3516 20.4711 16.1364C19.9859 18.2056 18.357 19.8344 16.2879 20.3197ZM20.4711 13.5601C22.351 13.3449 23.8111 11.7484 23.8111 9.81085C23.8111 7.72656 22.1213 6.03689 20.0371 6.03689C18.0995 6.03689 16.5031 7.49697 16.2879 9.3769C18.3571 9.86215 19.9859 11.4909 20.4711 13.5601ZM11.2258 14.8483C11.2258 12.764 12.9155 11.0744 14.9998 11.0744C17.0841 11.0744 18.7737 12.764 18.7737 14.8483C18.7737 16.9326 17.084 18.6223 14.9998 18.6223C12.9155 18.6223 11.2258 16.9325 11.2258 14.8483Z" fill="#E09400"></path><path fill-rule="evenodd" clip-rule="evenodd" d="M9.64439 4.05915C10.4891 1.92876 12.5684 0.421875 14.9999 0.421875C17.4315 0.421875 19.5107 1.92876 20.3555 4.05915C23.2828 4.21861 25.6282 6.56406 25.7876 9.49143C27.918 10.3361 29.4248 12.4154 29.4248 14.8469C29.4248 17.2785 27.9179 19.3577 25.7875 20.2025C25.628 23.1299 23.2826 25.4751 20.3555 25.6346C19.5107 27.7649 17.4314 29.2719 14.9999 29.2719C12.5684 29.2719 10.4891 27.7651 9.64439 25.6346C6.71701 25.4752 4.37157 23.1299 4.21211 20.2025C2.08172 19.3578 0.574829 17.2785 0.574829 14.8469C0.574829 12.4154 2.08171 10.3362 4.2121 9.49143C4.37146 6.56402 6.71695 4.21855 9.64439 4.05915ZM25.651 20.1011L25.5136 20.0961C25.405 22.9531 23.1093 25.25 20.253 25.3605L20.1607 25.3641L20.1281 25.4504C19.3452 27.5211 17.3443 28.9933 14.9999 28.9933C12.6555 28.9933 10.6546 27.5212 9.87179 25.4504L9.83914 25.3641L9.74688 25.3605C6.89167 25.2501 4.59665 22.9552 4.4862 20.1L4.48263 20.0078L4.39627 19.9751C2.32552 19.1923 0.853401 17.1913 0.853401 14.8469C0.853401 12.5026 2.32552 10.5017 4.39627 9.71883L4.48263 9.68619L4.4862 9.59393C4.59656 6.73868 6.8916 4.44363 9.74688 4.33324L9.83914 4.32968L9.87179 4.24331C10.6546 2.17257 12.6555 0.700446 14.9999 0.700446C17.3443 0.700446 19.3452 2.17257 20.1281 4.24332L20.1607 4.32967L20.253 4.33324C23.1082 4.4437 25.4031 6.73871 25.5135 9.59393L25.517 9.68619L25.6034 9.71884C27.6742 10.5016 29.1463 12.5025 29.1463 14.8469C29.1463 17.1914 27.6741 19.1922 25.6034 19.9751L25.651 20.1011ZM11.5234 4.38258C12.1745 3.12644 13.4868 2.26762 14.9999 2.26762C16.513 2.26762 17.8252 3.12644 18.4763 4.38255L18.5526 4.52986L18.3943 4.57953C16.962 5.029 15.7826 6.05099 15.1247 7.37744L14.9999 7.62899L14.8751 7.37745C14.2171 6.05103 13.0377 5.02907 11.6054 4.57957L11.4471 4.52989L11.5234 4.38258ZM11.8495 4.36685C13.1969 4.83394 14.3168 5.78699 14.9999 7.01621C15.6829 5.78695 16.8028 4.83388 18.1502 4.36681C17.522 3.27834 16.3464 2.54619 14.9999 2.54619C13.6534 2.54619 12.4777 3.27835 11.8495 4.36685ZM9.96243 6.17483C7.95506 6.17483 6.32775 7.80214 6.32775 9.80951C6.32775 11.6336 7.67151 13.144 9.42305 13.4045C9.94447 11.3829 11.5358 9.79158 13.5574 9.27016C13.2969 7.51862 11.7865 6.17483 9.96243 6.17483ZM6.04918 9.80951C6.04918 7.64829 7.80121 5.89626 9.96243 5.89626C11.9716 5.89626 13.627 7.4103 13.8501 9.35976L13.8642 9.4829L13.7435 9.51121C11.7258 9.9844 10.1373 11.573 9.66409 13.5906L9.63579 13.7113L9.51264 13.6972C7.56318 13.474 6.04918 11.8187 6.04918 9.80951ZM16.1496 9.35972C16.3728 7.41026 18.028 5.89626 20.0372 5.89626C22.1984 5.89626 23.9505 7.64829 23.9505 9.80951C23.9505 11.8186 22.4365 13.474 20.4871 13.6972L20.364 13.7113L20.3357 13.5906C19.8625 11.5729 18.2739 9.98433 16.2562 9.51117L16.1355 9.48287L16.1496 9.35972ZM16.4423 9.27012C18.4639 9.79152 20.0553 11.3828 20.5767 13.4045C22.3282 13.1439 23.6719 11.6335 23.6719 9.80951C23.6719 7.80215 22.0445 6.17483 20.0372 6.17483C18.2131 6.17483 16.7028 7.51859 16.4423 9.27012ZM14.9999 11.2123C12.9925 11.2123 11.3652 12.8396 11.3652 14.847C11.3652 16.8543 12.9926 18.4817 14.9999 18.4817C17.0072 18.4817 18.6346 16.8543 18.6346 14.847C18.6346 12.8396 17.0073 11.2123 14.9999 11.2123ZM11.0866 14.847C11.0866 12.6858 12.8387 10.9337 14.9999 10.9337C17.1611 10.9337 18.9131 12.6858 18.9131 14.847C18.9131 17.0082 17.161 18.7602 14.9999 18.7602C12.8387 18.7602 11.0866 17.0081 11.0866 14.847ZM25.3169 11.2942L25.4642 11.3705C26.7203 12.0216 27.5791 13.3339 27.5791 14.847C27.5791 16.3601 26.7203 17.6723 25.4642 18.3235L25.3168 18.3999L25.2672 18.2415C24.8177 16.8092 23.7958 15.6297 22.4693 14.9718L22.2178 14.847L22.4693 14.7222C23.7956 14.0642 24.8176 12.8848 25.2672 11.4525L25.3169 11.2942ZM4.68281 11.2942L4.73249 11.4525C5.18199 12.8848 6.20395 14.0642 7.53037 14.7222L7.78192 14.847L7.53035 14.9718C6.20391 15.6296 5.18192 16.809 4.73246 18.2414L4.68278 18.3997L4.53547 18.3233C3.27936 17.6723 2.42054 16.3601 2.42054 14.847C2.42054 13.3339 3.27936 12.0215 4.5355 11.3705L4.68281 11.2942ZM4.51977 11.6966C3.43127 12.3248 2.69911 13.5005 2.69911 14.847C2.69911 16.1935 3.43126 17.3691 4.51973 17.9972C4.9868 16.6498 5.93987 15.5299 7.16912 14.847C5.93991 14.1639 4.98686 13.044 4.51977 11.6966ZM25.4799 11.6966C25.0127 13.044 24.0597 14.1639 22.8305 14.847C24.0598 15.53 25.0129 16.65 25.4799 17.9974C26.5684 17.3691 27.3005 16.1935 27.3005 14.847C27.3005 13.5005 26.5684 12.3248 25.4799 11.6966ZM9.63579 15.9826L9.66409 16.1033C10.1373 18.1209 11.7258 19.7096 13.7435 20.1827L13.8642 20.211L13.8501 20.3342C13.6269 22.2836 11.9716 23.7975 9.96243 23.7975C7.80121 23.7975 6.04918 22.0455 6.04918 19.8843C6.04918 17.875 7.56318 16.2198 9.51265 15.9967L9.63579 15.9826ZM20.3639 15.9826L20.4871 15.9967C22.4365 16.2199 23.9504 17.8752 23.9504 19.8843C23.9504 22.0455 22.1984 23.7976 20.0372 23.7976C18.0281 23.7976 16.3727 22.2836 16.1496 20.3342L16.1355 20.2111L16.2562 20.1827C18.2738 19.7096 19.8625 18.121 20.3356 16.1033L20.3639 15.9826ZM9.42304 16.2894C7.67151 16.5499 6.32775 18.0601 6.32775 19.8843C6.32775 21.8916 7.95507 23.519 9.96243 23.519C11.7865 23.519 13.2968 22.1752 13.5574 20.4238C11.5357 19.9024 9.94444 18.311 9.42304 16.2894ZM20.5767 16.2894C20.0553 18.311 18.4639 19.9024 16.4423 20.4238C16.7028 22.1753 18.2132 23.519 20.0372 23.519C22.0445 23.519 23.6719 21.8916 23.6719 19.8843C23.6719 18.0603 22.3281 16.5499 20.5767 16.2894ZM14.9997 22.0648L15.1245 22.3164C15.7826 23.6429 16.962 24.6648 18.3943 25.1142L18.5526 25.1639L18.4763 25.3112C17.8253 26.5673 16.513 27.4262 14.9999 27.4262C13.4868 27.4262 12.1745 26.5673 11.5234 25.3112L11.4471 25.1639L11.6054 25.1143C13.0377 24.6647 14.2171 23.6429 14.875 22.3164L14.9997 22.0648ZM14.9998 22.6776C14.3168 23.9069 13.1969 24.8598 11.8495 25.327C12.4777 26.4154 13.6534 27.1476 14.9999 27.1476C16.3464 27.1476 17.522 26.4154 18.1502 25.327C16.8028 24.8599 15.6829 23.9069 14.9998 22.6776Z" fill="#E09400"></path></svg>